{"title":"Crank(2006)MPEG-4[DaScubaDude]","uid":15106565,"size":969656759,"categoryP":"video","categoryS":"movies","magnet":"?xt=urn:btih:02df63f422979781379ae3e6d4eacd12c66e31dc&amp;dn=Crank%282006%29MPEG-4%5BDaScubaDude%5D&amp;tr=udp%3A%2F%2Ftracker.leechers-paradise.org%3A6969&amp;tr=udp%3A%2F%2Fzer0day.ch%3A1337&amp;tr=udp%3A%2F%2Fopen.demonii.com%3A1337&amp;tr=udp%3A%2F%2Ftracker.coppersurfer.tk%3A6969&amp;tr=udp%3A%2F%2Fexodus.desync.com%3A6969","seeders":0,"leechers":1,"uploader":"dascuba","files":1,"time":1466983201,"description":"Crank (2006)\r\nR | 1h 28min | Action, Crime, Thriller | 1 September 2006 (USA)\r\nProfessional assassin Chev Chelios learns his rival has injected him with a poison that will kill him if his heart rate drops.\r\nDirectors: Mark Neveldine (as Neveldine), Brian Taylor (as Taylor)\r\nWriters: Mark Neveldine (as Neveldine), Brian Taylor (as Taylor)\r\nStars: Jason Statham, Amy Smart, Carlos Sanz |\r\n\r\nGeneral\r\nComplete name                            : CrankCrank_Title1.mp4\r\nFormat                                   : MPEG-4\r\nFormat profile                           : Base Media\r\nCodec ID                                 : isom (isom/iso2/avc1/mp41)\r\nFile size                                : 925 MiB\r\nDuration                                 : 1h 28mn\r\nOverall bit rate                         : 1 468 Kbps\r\nMovie name                               : Crank\r\nWriting application                      : Lavf54.6.100\r\n\r\nVideo\r\nID                                       : 1\r\nFormat                                   : AVC\r\nFormat/Info                              : Advanced Video Codec\r\nFormat profile                           :   \r\nFormat settings, CABAC                   : No\r\nFormat settings, ReFrames                : 6 frames\r\nCodec ID                                 : avc1\r\nCodec ID/Info                            : Advanced Video Coding\r\nDuration                                 : 1h 28mn\r\nBit rate                                 : 1 196 Kbps\r\nWidth                                    : 720 pixels\r\nHeight                                   : 404 pixels\r\nDisplay aspect ratio                     : 16:9\r\nFrame rate mode                          : Constant\r\nFrame rate                               : 29.970 (30000/1001) fps\r\nColor space                              : YUV\r\nChroma subsampling                       : 4:2:0\r\nBit depth                                : 8 bits\r\nScan type                                : Progressive\r\nBits/(Pixel*Frame)                       : 0.137\r\nStream size                              : 753 MiB (81%)\r\n\r\nAudio\r\nID                                       : 2\r\nFormat                                   : AAC\r\nFormat/Info                              : Advanced Audio Codec\r\nFormat profile                           : LC\r\nCodec ID                                 : 40\r\nDuration                                 : 1h 27mn\r\nBit rate mode                            : Constant\r\nBit rate                                 : 265 Kbps\r\nChannel(s)                               : 2 channels\r\nChannel(s)_Original                      : 6 channels\r\nChannel positions                        : Front: L C R, Side: L R, LFE\r\nSampling rate                            : 44.1 KHz\r\nFrame rate                               : 43.066 fps (1024 spf)\r\nCompression mode                         : Lossy\r\nStream size                              : 167 MiB (18%)\r\nDefault                                  : Yes\r\nAlternate group                          : 1","torrent":{"xt":"urn:btih:02df63f422979781379ae3e6d4eacd12c66e31dc","amp;dn":"Crank%282006%29MPEG-4%5BDaScubaDude%5D","amp;tr":["udp%3A%2F%2Ftracker.leechers-paradise.org%3A6969","udp%3A%2F%2Fzer0day.ch%3A1337","udp%3A%2F%2Fopen.demonii.com%3A1337","udp%3A%2F%2Ftracker.coppersurfer.tk%3A6969","udp%3A%2F%2Fexodus.desync.com%3A6969"],"infoHash":"02df63f422979781379ae3e6d4eacd12c66e31dc","infoHashBuffer":{"type":"Buffer","data":[2,223,99,244,34,151,151,129,55,154,227,230,212,234,205,18,198,110,49,220]},"announce":[],"urlList":[]}}